<?xml version="1.0" encoding="UTF-8" standalone="no"?>
<svg width="400" height="300" viewBox="0 0 400 300" xmlns="http://www.w3.org/2000/svg">
  <!-- Background -->
  <rect width="400" height="300" fill="#f8f9fa" rx="10" />
  
  <!-- Blender Base -->
  <rect x="160" y="200" width="80" height="30" rx="5" fill="#495057" />
  
  <!-- Blender Body -->
  <path d="M170,200 L170,120 L230,120 L230,200 Z" fill="#20c997" />
  
  <!-- Blender Container -->
  <path d="M160,120 L170,80 L230,80 L240,120 Z" fill="#adb5bd" opacity="0.7" />
  <path d="M165,115 L173,85 L227,85 L235,115 Z" fill="#e9ecef" opacity="0.5" />
  
  <!-- Blender Lid -->
  <rect x="170" y="70" width="60" height="10" rx="2" fill="#495057" />
  <circle cx="200" cy="75" r="5" fill="#e9ecef" />
  
  <!-- Control Buttons -->
  <circle cx="200" cy="215" r="8" fill="#e9ecef" />
  <rect x="185" cy="215" width="10" height="5" rx="2" fill="#e9ecef" />
  <rect x="205" cy="215" width="10" height="5" rx="2" fill="#e9ecef" />
  
  <!-- Blender Contents -->
  <path d="M175,110 L225,110 L220,90 L180,90 Z" fill="#51cf66" opacity="0.7" />
  
  <!-- Product Name -->
  <rect x="100" y="260" width="200" height="30" rx="5" fill="#20c997" />
  <text x="200" y="280" font-family="Arial" font-size="14" text-anchor="middle" fill="white">Blender</text>
</svg>